<?xml version="1.0" encoding="UTF-8" standalone="no"?>
<svg xmlns:ffdec="https://www.free-decompiler.com/flash" xmlns:xlink="http://www.w3.org/1999/xlink" ffdec:objectType="shape" height="7.0px" width="7.0px" xmlns="http://www.w3.org/2000/svg">
  <g transform="matrix(1.0, 0.0, 0.0, 1.0, 3.5, 3.5)">
    <path d="M2.15 -2.1 Q3.0 -1.25 3.0 0.0 3.0 1.05 2.4 1.85 L2.15 2.15 Q1.25 3.0 0.0 3.0 -1.25 3.0 -2.1 2.15 L-2.35 1.85 Q-3.0 1.05 -3.0 0.0 -3.0 -1.25 -2.1 -2.1 -1.25 -3.0 0.0 -3.0 1.25 -3.0 2.15 -2.1" fill="#0099ff" fill-rule="evenodd" stroke="none"/>
    <path d="M2.15 -2.1 Q3.0 -1.25 3.0 0.0 3.0 1.05 2.4 1.85 L2.15 2.15 Q1.25 3.0 0.0 3.0 -1.25 3.0 -2.1 2.15 L-2.35 1.85 Q-3.0 1.05 -3.0 0.0 -3.0 -1.25 -2.1 -2.1 -1.25 -3.0 0.0 -3.0 1.25 -3.0 2.15 -2.1 Z" fill="none" stroke="#000000" stroke-linecap="round" stroke-linejoin="round" stroke-width="1.0"/>
  </g>
</svg>
